@startuml
hide methods
left to right direction
skinparam classAttributeIconSize 0


package User <<Folder>>{
class User <<entity root>>{
  -
}

class SalesManager <<entity>>{
  -
}

class WarehouseEmployee <<entity>>{
  -
}

class Administrator <<entity>>{
 -
}

class SalesClerk <<entity>>{
  -
}
}

WarehouseEmployee "1" -- "1" User : é >
SalesManager "1" -- "1" User : é >
SalesClerk "1" -- "1" User : é >
Administrator "1" -- "1" User : é >


@enduml
